<?xml version="1.0" encoding="utf-8"?>
<!-- Generator: Adobe Illustrator 19.0.0, SVG Export Plug-In . SVG Version: 6.00 Build 0)  -->
<svg version="1.1" id="图层_1" xmlns="http://www.w3.org/2000/svg" xmlns:xlink="http://www.w3.org/1999/xlink" x="0px" y="0px"
	 viewBox="2 -36 96 96" style="enable-background:new 2 -36 96 96;" xml:space="preserve">
<style type="text/css">
	.st0{opacity:0.1;fill:#7C848E;}
</style>
<path class="st0" d="M36.2,18.4l-2.1,2.1l2.8,2.8l2.1-2.1L36.2,18.4 M32.7,38.9L22.8,29l4.9-4.9l1.4,1.4L25.6,29l2.1,2.1l3.5-3.5
	l1.4,1.4l-3.5,3.5l4.9,4.9L33,38.9 M36.3,17.4l1.3-0.4l2.8,2.8v1.4l0.7,0.7l6.4,2.1l-2.1,2.1l-5.7-2.8l-1.4,1.4l4.2,4.2l-1.4,1.4
	l-9.9-9.9l1.4-1.4l2.1-2.1L36.3,17.4 M49.7,22l-9.9-9.9l4.9-4.9l1.4,1.4l-3.5,3.5l2.8,2.8l3.5-3.5l1.4,1.4l-3.5,3.5l2.8,2.8l3.5-3.5
	l1.4,1.4l-2.8,2.8L49.7,22 M57.4,14.2l-9.9-9.9l4.9-4.9l1.4,1.4l-3.5,3.5l2.8,2.8l3.5-3.5L58.2,5l-3.5,3.5l2.8,2.8L61,7.8l1.4,1.4
	l-3.5,3.5L57.4,14.2 M38.4,57.3L4.4,23.4l46.7-46.7L71.6-24L85-10.5L85.1-3c-2.2,0.9-4.3,1.3-6.2,1.3c-4.3,0-8-2-10.8-4.7
	c0,0,0,0,0,0c-0.2,0-1.5,1.4-1.4,1.5c2.3,2.6,4.4,3.8,5.7,4.2c-0.1,0,0,0,0,0c-1.5,1.4-2.4,1.9-4.3,1.9c-1.9,0-3.9-0.7-5.4-2.2
	c-2.9-2.9-2.9-7.7,0-10.7c1.5-1.4,3.4-2.4,5.3-2.4c1.9,0,3.7,0.2,5.2,1.7c1.1,1.1,2,3.8,2,5.2c0,0.8,0.9,1.4,1.8,1.4
	c0.4,0,0.7-0.2,0.7-0.7c0.1-2.6-0.7-5.9-2.2-7.5c-2-2.1-4.7-3.1-7.4-3.1c-2.6,0-5.6,0.8-7.7,2.8L15,31.2l15.6,15.6l46-46
	c0.6,0.1,2.1,0,2.8,0c2.2,0,4.1-1.1,5.7-1.4L85,10.7L38.4,57.3 M79.7-36c-4.6,0-8.1,0.7-11.6,4.2c-0.6,0.6-1.5,1.5-2.1,2.1
	c-0.1,0.1,2,0.9,2.1,0.7c0.3-0.5,1.3-1.3,1.4-1.4c2.8-2.8,6.4-3.9,10.3-3.9c4.3,0,8.6,1.6,11.6,4.7c5.9,5.9,5.9,16.8,0,22.7
	c-1,1-3.4,2.7-4.5,3.4l0.2-7.8L72.3-26.1l-21.9,0.7L1.6,23.4l36.8,36.8l48.8-48.8l0.1-12.8c1.9-0.9,3.7-2.1,5.3-3.7
	c7.1-7.1,7.4-18.9,0.3-26C89.2-34.6,84.3-36,79.7-36"/>
</svg>
