<?xml version="1.0" encoding="utf-8"?>
<!-- Generator: Adobe Illustrator 22.0.1, SVG Export Plug-In . SVG Version: 6.00 Build 0)  -->
<svg version="1.1" id="图层_1" xmlns="http://www.w3.org/2000/svg" xmlns:xlink="http://www.w3.org/1999/xlink" x="0px" y="0px"
	 width="96px" height="96px" viewBox="0 0 96 96" style="enable-background:new 0 0 96 96;" xml:space="preserve">
<style type="text/css">
	.st0{opacity:0.1;}
	.st1{fill:#7C848E;}
</style>
<image style="display:none;overflow:visible;" width="92" height="84" xlink:href="../../../../图层 1.png"  transform="matrix(1 0 0 1 2.3333 11.1667)">
</image>
<g class="st0">
	<g>
		<path class="st1" d="M94.4,71.9L53.2,11l-13.9,0l0,0L3.4,73.9L8.5,85l0,0.1l0.1,0l0,0l0,0l78.7-0.2L94.4,71.9z M52.1,13l39.2,58
			l-61.9,0l3.4-6l43.6,0l0-1.5l0,0l0,0c0,0,0-0.1-0.1-0.1L76.2,63h0c-0.2-0.2-0.3-0.5-0.4-0.6C71.8,57,40.7,13,40.7,13H52.1z
			 M63.5,62.2c0.2,0.2,0.4,0.5,0.5,0.8H34l13.2-23.2C47.2,39.9,60.6,58.3,63.5,62.2z M9.7,83l30.4-52.9l5.8,7.9L26.4,73l65.1,0
			l-5.4,9.9L9.7,83z"/>
	</g>
</g>
</svg>
