<?xml version="1.0" encoding="utf-8"?>
<!-- Generator: Adobe Illustrator 19.0.0, SVG Export Plug-In . SVG Version: 6.00 Build 0)  -->
<svg version="1.1" id="图层_1" xmlns="http://www.w3.org/2000/svg" xmlns:xlink="http://www.w3.org/1999/xlink" x="0px" y="0px"
	 viewBox="0 0 96 96" style="enable-background:new 0 0 96 96;" xml:space="preserve">
<style type="text/css">
	.st0{opacity:0.1;}
	.st1{fill-rule:evenodd;clip-rule:evenodd;fill:#7C848E;}
</style>
<g id="XMLID_2_" class="st0">
	<g id="XMLID_102_">
		<path id="XMLID_103_" class="st1" d="M70,16H56v2h14V16z M56,50h23v-2H56V50z M56,58h17v-2H56V58z M0,0v96h96V0H0z M94,94H2V2h92
			V94z M32,64l24-25h31V24H56v13L31,63C31.8,63.7,31.2,63.2,32,64z M58,26h27v11H58V26z M41,88c-0.4-8.7-3.4-18.1-9-24L8,88H41z
			 M7,55v32l24-24C24.9,57.8,15.6,55,7,55z"/>
	</g>
</g>
</svg>
