<?xml version="1.0" encoding="utf-8"?>
<!-- Generator: Adobe Illustrator 19.0.0, SVG Export Plug-In . SVG Version: 6.00 Build 0)  -->
<svg version="1.1" id="图层_1" xmlns="http://www.w3.org/2000/svg" xmlns:xlink="http://www.w3.org/1999/xlink" x="0px" y="0px"
	 viewBox="2 -36 96 96" style="enable-background:new 2 -36 96 96;" xml:space="preserve">
<style type="text/css">
	.st0{opacity:0.1;fill:#7C848E;}
</style>
<path id="域名注册_拷贝_2" class="st0" d="M2,38v-62h96v62H2z M96-22H4v16h92V-22z M29,12v3h3v-3H29z M42,13v3h8v-3H42V2h8v-3
	h-8v3h-3v11H42z M39,13c0,1.7,1.3,3,3,3v-3H39z M42,2v-3c-1.7,0-3,1.3-3,3H42z M67,2v14h3V2c0.1-1.6-1.2-2.9-2.8-3
	c-0.1,0-0.1,0-0.2,0h-9v17h3V2H67z M96,21H4v15h92V21z M82,48H19v-2h63V48z"/>
</svg>
